<?xml version="1.0" encoding="UTF-8"?>
<svg width="131px" height="28px" viewBox="0 0 131 28" version="1.1" xmlns="http://www.w3.org/2000/svg" xmlns:xlink="http://www.w3.org/1999/xlink">
    <!-- Generator: Sketch 44.1 (41455) - http://www.bohemiancoding.com/sketch -->
    <title>Group 16 Copy 21</title>
    <desc>Created with Sketch.</desc>
    <defs></defs>
    <g stroke="none" stroke-width="1" fill="none" fill-rule="evenodd">
        <g transform="translate(-26.000000, -44.000000)" fill="#FFFFFF">
            <g transform="translate(-84.000000, 0.000000)">
                <g transform="translate(110.000000, 44.000000)">
                    <path d="M44.9945048,26.4026904 C40.4140404,26.8050063 38.1778428,22.4758604 37.8286967,18.3082074 C37.3520845,12.6077875 40.3032004,10.355385 43.1517893,10.1046459 C47.5064171,9.72499567 49.8936343,13.9124811 50.2552499,18.2359606 C50.7152361,23.7777207 47.9954988,26.1363686 44.9945048,26.4026904 L44.9945048,26.4026904 Z M34.3206096,18.4158694 C34.3206096,23.5298147 37.9686322,27.6238042 44.1160976,27.6238042 C49.7052063,27.6238042 53.7591805,23.6488096 53.7591805,18.1764631 C53.7591805,13.2155112 50.5032545,8.8835321 44.1160976,8.8835321 C38.3621143,8.8835321 34.3206096,13.0242695 34.3206096,18.4158694 Z"></path>
                    <path d="M120.095555,4.15632007 C120.095555,2.04841132 118.675417,0.264905199 117.037756,0.264905199 C115.498465,0.264905199 115.136849,1.31744297 115.136849,1.9350829 C115.136849,2.69296675 115.660568,3.02586901 116.203685,3.06836717 C116.964324,3.11369854 118.187721,3.79650232 118.187721,5.34201874 C118.187721,6.99944699 116.64843,8.13839769 115.175643,8.82545128 C114.981673,9.10735574 115.136849,9.5210045 115.454129,9.67683109 C117.949415,8.91186421 120.095555,6.95553223 120.095555,4.15632007"></path>
                    <path d="M126.851255,17.3180003 L124.394763,16.0189732 C122.808365,15.1675934 121.751228,14.2722988 121.751228,12.8273614 C121.751228,11.4447546 122.615781,10.0550647 124.954505,10.0550647 C127.296001,10.0550647 128.324042,12.1289749 128.655177,13.5469969 C128.840834,13.8274847 129.554367,13.7864032 129.68876,13.4690836 C129.712314,11.7252424 129.436599,10.1783094 129.119319,9.48983918 C127.775384,9.25326609 126.819389,8.8835321 125.425575,8.8835321 C121.432563,8.8835321 119.190823,10.9489427 119.190823,13.9124811 C119.190823,16.1861326 120.828485,17.7670642 122.733548,18.7756872 L124.513916,19.7148965 C126.78198,20.890679 127.296001,22.2307876 127.296001,23.5298147 C127.296001,25.3926508 125.989474,26.4536882 123.965258,26.4536882 C121.305097,26.4536882 119.564909,23.5737295 119.242087,22.1089596 C118.96083,21.7392256 118.369222,21.7803071 118.211275,22.1967891 C118.211275,24.3415296 118.68373,25.8034663 119.045346,26.3672752 C119.599546,26.7681745 121.192872,27.6238042 123.603642,27.6238042 C127.534307,27.6238042 130.073929,25.6377235 130.073929,22.4758604 C130.073929,19.7559781 128.283863,18.0489687 126.851255,17.3180003"></path>
                    <path d="M85.4691287,26.0825376 C82.4390393,26.0825376 82.0510991,24.7820938 82.0510991,22.1967891 L82.0510991,12.5341241 C82.0510991,11.6345797 82.0510991,11.1175187 82.2797067,10.9489427 C82.6039138,10.6741213 83.3590115,10.509795 84.6724659,10.509795 C89.1490178,10.509795 92.5587343,13.1064326 92.5587343,18.0943 C92.5587343,23.0368361 90.2227806,26.0825376 85.4691287,26.0825376 L85.4691287,26.0825376 Z M90.6190338,10.226474 C88.7555357,9.57200229 86.8075221,9.3340126 84.5865649,9.3340126 C81.3805169,9.3340126 79.1526323,9.4133425 76.9289041,9.57200229 C76.5756015,9.69241375 76.5312655,10.4658803 76.8859536,10.5891249 L78.0747129,10.7492013 C78.9932997,10.8681962 79.0293227,11.5594996 79.0293227,14.1958021 L79.0293227,22.8045128 C79.0293227,25.5966419 78.8713757,25.7567183 77.1658246,26.041456 L76.4093414,26.1618675 C76.1363978,26.3672752 76.1765773,27.0614118 76.4855439,27.1761569 C78.0400754,27.0996602 79.2745563,27.0614118 80.5436747,27.0614118 C81.1408254,27.0614118 81.8931521,27.0996602 82.6759598,27.1393251 C83.5155731,27.2257381 84.4369309,27.2625698 85.3070251,27.2625698 C87.2869052,27.2625698 89.5064769,26.9480834 91.295158,26.0003744 C94.4748814,24.3415296 96.0959169,21.3794078 96.0959169,18.1764631 C96.0959169,14.4408749 94.2282624,11.4801697 90.6190338,10.226474 L90.6190338,10.226474 Z"></path>
                    <path d="M113.137572,9.3340126 C112.013931,9.4133425 111.181246,9.44875763 110.302838,9.44875763 C109.398106,9.44875763 108.489218,9.4133425 107.301844,9.3340126 C106.900049,9.48983918 106.861255,10.1414776 107.214558,10.341219 L108.050015,10.4658803 C109.011552,10.5891249 108.924265,10.9489427 108.329886,12.0850602 L106.743488,15.054265 C106.072905,16.3447924 105.472984,17.3180003 104.837039,18.4158694 C104.24543,17.3604985 103.645509,16.2640459 103.058057,15.054265 L101.583884,12.1700565 C100.942397,10.9036113 101.07402,10.6741213 101.939958,10.4658803 L102.4997,10.341219 C102.891796,10.1414776 102.778185,9.48983918 102.455364,9.3340126 C101.187631,9.4133425 100.278743,9.44875763 99.0844413,9.44875763 C97.6587614,9.44875763 96.7401746,9.4133425 95.4322622,9.3340126 C95.1205246,9.44875763 95.0415511,10.1003961 95.3117237,10.341219 L96.3466925,10.5409603 C97.3733483,10.7492013 97.7792999,11.1175187 98.6064437,12.735282 L101.500754,18.2132949 C102.4997,20.0775475 102.611925,20.4019501 102.611925,21.6669787 L102.611925,23.1969125 C102.611925,25.5966419 102.455364,25.8431312 100.749813,26.041456 L99.761951,26.1618675 C99.4779235,26.3672752 99.515332,27.0614118 99.8395391,27.1761569 C101.625449,27.0996602 102.85993,27.0614118 104.130434,27.0614118 C105.349674,27.0614118 106.664514,27.0996602 108.404703,27.1761569 C108.727524,27.0614118 108.767704,26.3672752 108.489218,26.1618675 L107.495814,26.041456 C105.791649,25.8431312 105.625389,25.5966419 105.625389,23.1969125 L105.625389,21.0082572 C105.625389,19.8367246 105.71129,19.4329921 107.141126,17.1210922 L109.599004,13.0568514 C110.829328,11.0353556 111.026069,10.7888663 112.261936,10.5409603 L113.209618,10.341219 C113.533825,10.1414776 113.446539,9.44875763 113.137572,9.3340126"></path>
                    <path d="M66.3048868,26.4026904 C61.7244224,26.8050063 59.4868393,22.4758604 59.1390787,18.3082074 C58.6624665,12.6077875 61.6135824,10.355385 64.4621713,10.1046459 C68.8167991,9.72499567 71.2012453,13.9124811 71.5628609,18.2359606 C72.0256181,23.7777207 69.3072663,26.1363686 66.3048868,26.4026904 L66.3048868,26.4026904 Z M65.4250941,8.8835321 C59.6752673,8.8835321 55.6296061,13.0242695 55.6296061,18.4158694 C55.6296061,23.5298147 59.2762432,27.6238042 65.4250941,27.6238042 C71.0155883,27.6238042 75.068177,23.6488096 75.068177,18.1764631 C75.068177,13.2155112 71.8164075,8.8835321 65.4250941,8.8835321 L65.4250941,8.8835321 Z"></path>
                    <path d="M32.5069895,26.041456 C30.644877,25.8431312 30.6822855,24.7820938 30.5631324,22.7634312 C30.2416963,16.9142678 30.2029023,9.4133425 30.1239288,5.10969547 C30.0851348,2.27365157 30.4024144,1.54409982 32.8977006,1.25086252 L33.7386994,1.17294922 C33.939597,1.008623 33.939597,0.321569413 33.7026764,0.160076404 C32.4626535,0.240822908 31.1602831,0.274821436 30.1668793,0.274821436 C29.3716021,0.274821436 28.5430728,0.274821436 27.1880534,0.160076404 C27.1076944,2.02716224 26.0006795,4.26114887 24.17459,7.94573936 L20.4434374,15.693154 C19.45419,17.7670642 18.4594007,19.882056 17.3884089,21.7803071 L17.3108209,21.7803071 C16.3506691,19.9939678 15.4833458,18.1297152 14.5716866,16.2286308 L10.0466422,6.85353664 C8.82185981,4.26114887 7.822914,1.74100797 7.98363205,0.160076404 C6.67294865,0.274821436 5.60472783,0.274821436 4.68891205,0.274821436 C3.69827924,0.274821436 2.74782595,0.240822908 1.55629559,0.160076404 C1.23485949,0.321569413 1.19606548,0.929293104 1.39834854,1.17294922 L2.02875124,1.25086252 C4.44922047,1.66026146 4.77619857,2.18440544 4.68891205,4.74279468 C4.60993852,6.96969828 4.44922047,10.4191323 4.24970841,13.7864032 C4.01832984,17.8081458 3.82158878,20.036466 3.58051171,22.7195165 C3.34082014,25.5541438 2.78384897,25.8431312 1.11986296,26.041456 L0.246997692,26.1618675 C0.000378617122,26.3672752 0.0848941429,26.9820819 0.330127718,27.1761569 C1.68099063,27.0996602 3.10389956,27.0614118 4.37024695,27.0614118 C5.87767141,27.0614118 7.42943188,27.0996602 8.77752379,27.1761569 C9.05600938,27.0614118 9.09757439,26.4083568 8.82185981,26.1618675 L7.31166435,26.041456 C5.75851837,25.9238778 5.5271398,25.2736559 5.5271398,22.2704526 C5.5271398,18.8252684 5.68370135,15.2044251 5.80285439,12.735282 C5.92754942,10.3808839 6.04531696,8.02506926 6.19633651,5.51059478 L6.27808103,5.51059478 C7.1495608,7.37909723 7.98363205,9.48983918 8.82185981,11.3526752 L12.3839814,19.1879194 C13.2984117,21.174 15.2007038,25.1560777 15.885141,27.2994015 C15.959958,27.4254794 16.162241,27.4637278 16.2384436,27.4637278 C16.4005471,27.4637278 16.5557232,27.4254794 16.6291547,27.2994015 C17.3482294,25.4337323 19.138296,21.6273138 20.9172785,18.0489687 L24.4489191,10.9489427 C25.2441963,9.37226094 26.7460788,6.12398489 27.0287209,5.67917082 L27.1076944,5.67917082 L27.2282329,22.5948552 C27.2282329,25.1929094 27.2282329,25.8431312 25.2857613,26.041456 L24.1427235,26.1618675 C23.8988754,26.4083568 23.9376694,26.9820819 24.218926,27.1761569 C25.838576,27.0996602 27.627257,27.0614118 29.011372,27.0614118 C30.4425939,27.0614118 32.0733279,27.0996602 33.7026764,27.1761569 C33.97562,27.0160805 34.014414,26.4083568 33.7816499,26.1618675 L32.5069895,26.041456"></path>
                </g>
            </g>
        </g>
    </g>
</svg>